# Blender 4.5.3 LTS
# www.blender.org
o Slice.002
v 0.000000 0.010000 0.084478
v 0.063276 0.010000 -0.027273
v 0.077063 0.010000 -0.009091
v 0.082449 0.010000 0.009091
v 0.083197 0.010000 0.027273
v 0.083333 0.010000 0.045455
v 0.083333 0.010000 0.084478
v 0.066667 0.010000 0.084478
v 0.050000 0.010000 0.084478
v 0.033333 0.010000 0.084478
v 0.016667 0.010000 0.084478
v -0.063276 0.010000 -0.027273
v -0.077063 0.010000 -0.009091
v -0.082449 0.010000 0.009091
v -0.083197 0.010000 0.027273
v -0.083333 0.010000 0.045455
v -0.083333 0.010000 0.084478
v -0.066667 0.010000 0.084478
v -0.050000 0.010000 0.084478
v -0.033333 0.010000 0.084478
v -0.016667 0.010000 0.084478
l 2 3
l 3 4
l 4 5
l 5 6
l 12 13
l 13 14
l 14 15
l 15 16
l 6 7
l 16 17
l 17 18
l 18 19
l 19 20
l 21 1
l 20 21
l 8 7
l 9 8
l 10 9
l 1 11
l 11 10
