# Blender 4.5.3 LTS
# www.blender.org
o Slice.001
v 0.000000 0.007062 -0.088087
v 0.070873 0.007062 -0.073596
v 0.077021 0.007062 -0.060664
v 0.077063 0.007062 -0.045455
v 0.063276 0.007062 -0.027273
v 0.060808 0.007062 -0.079500
v 0.049999 0.007062 -0.083328
v 0.033333 0.007062 -0.086499
v 0.016667 0.007062 -0.087921
v -0.070873 0.007062 -0.073596
v -0.077021 0.007062 -0.060664
v -0.077063 0.007062 -0.045455
v -0.063276 0.007062 -0.027273
v -0.060808 0.007062 -0.079500
v -0.049999 0.007062 -0.083328
v -0.033333 0.007062 -0.086499
v -0.016667 0.007062 -0.087921
l 2 3
l 3 4
l 4 5
l 9 8
l 1 9
l 8 7
l 7 6
l 6 2
l 10 11
l 11 12
l 12 13
l 17 16
l 1 17
l 16 15
l 15 14
l 14 10
