# Blender 4.5.3 LTS
# www.blender.org
o Slice.001
v 0.000000 0.010000 -0.088087
v 0.000000 0.010000 0.084478
v 0.070873 0.010000 -0.073596
v 0.077021 0.010000 -0.060664
v 0.077063 0.010000 -0.045455
v 0.063276 0.010000 -0.027273
v 0.077063 0.010000 -0.009091
v 0.082449 0.010000 0.009091
v 0.083197 0.010000 0.027273
v 0.083333 0.010000 0.045455
v 0.083333 0.010000 0.084478
v 0.060808 0.010000 -0.079500
v 0.066667 0.010000 0.084478
v 0.049999 0.010000 -0.083328
v 0.050000 0.010000 0.084478
v 0.033333 0.010000 -0.086499
v 0.033333 0.010000 0.084478
v 0.016667 0.010000 -0.087921
v 0.016667 0.010000 0.084478
v -0.070873 0.010000 -0.073596
v -0.077021 0.010000 -0.060664
v -0.077063 0.010000 -0.045455
v -0.063276 0.010000 -0.027273
v -0.077063 0.010000 -0.009091
v -0.082449 0.010000 0.009091
v -0.083197 0.010000 0.027273
v -0.083333 0.010000 0.045455
v -0.083333 0.010000 0.084478
v -0.060808 0.010000 -0.079500
v -0.066667 0.010000 0.084478
v -0.049999 0.010000 -0.083328
v -0.050000 0.010000 0.084478
v -0.033333 0.010000 -0.086499
v -0.033333 0.010000 0.084478
v -0.016667 0.010000 -0.087921
v -0.016667 0.010000 0.084478
