{
	"asset":{
		"generator":"Khronos glTF Blender I/O v4.5.48",
		"version":"2.0"
	},
	"scene":0,
	"scenes":[
		{
			"name":"Scene",
			"nodes":[
				0
			]
		}
	],
	"nodes":[
		{
			"mesh":0,
			"name":"Slice",
			"scale":[
				0.10000000149011612,
				0.009999999776482582,
				0.10000000149011612
			]
		}
	],
	"materials":[
		{
			"doubleSided":true,
			"name":"inner",
			"pbrMetallicRoughness":{
				"baseColorTexture":{
					"index":0
				},
				"metallicFactor":0
			}
		},
		{
			"doubleSided":true,
			"name":"crust",
			"pbrMetallicRoughness":{
				"baseColorFactor":[
					0.17012354731559753,
					0.03182119131088257,
					0.0040404112078249454,
					1
				],
				"metallicFactor":0,
				"roughnessFactor":0.5
			}
		}
	],
	"meshes":[
		{
			"name":"Slice",
			"primitives":[
				{
					"attributes":{
						"POSITION":0,
						"NORMAL":1,
						"TEXCOORD_0":2
					},
					"indices":3,
					"material":0
				},
				{
					"attributes":{
						"POSITION":4,
						"NORMAL":5,
						"TEXCOORD_0":6
					},
					"indices":7,
					"material":1
				}
			]
		}
	],
	"textures":[
		{
			"sampler":0,
			"source":0
		}
	],
	"images":[
		{
			"mimeType":"image/png",
			"name":"bread noise",
			"uri":"bread%20noise.png"
		}
	],
	"accessors":[
		{
			"bufferView":0,
			"componentType":5126,
			"count":202,
			"max":[
				0.8333333730697632,
				0.7061511874198914,
				0.8447781801223755
			],
			"min":[
				-0.8333333730697632,
				-0.7061522603034973,
				-0.8808689117431641
			],
			"type":"VEC3"
		},
		{
			"bufferView":1,
			"componentType":5126,
			"count":202,
			"type":"VEC3"
		},
		{
			"bufferView":2,
			"componentType":5126,
			"count":202,
			"type":"VEC2"
		},
		{
			"bufferView":3,
			"componentType":5123,
			"count":960,
			"type":"SCALAR"
		},
		{
			"bufferView":4,
			"componentType":5126,
			"count":308,
			"max":[
				1,
				0.7061511874198914,
				1
			],
			"min":[
				-1,
				-0.7061522603034973,
				-1.0626871585845947
			],
			"type":"VEC3"
		},
		{
			"bufferView":5,
			"componentType":5126,
			"count":308,
			"type":"VEC3"
		},
		{
			"bufferView":6,
			"componentType":5126,
			"count":308,
			"type":"VEC2"
		},
		{
			"bufferView":7,
			"componentType":5123,
			"count":744,
			"type":"SCALAR"
		}
	],
	"bufferViews":[
		{
			"buffer":0,
			"byteLength":2424,
			"byteOffset":0,
			"target":34962
		},
		{
			"buffer":0,
			"byteLength":2424,
			"byteOffset":2424,
			"target":34962
		},
		{
			"buffer":0,
			"byteLength":1616,
			"byteOffset":4848,
			"target":34962
		},
		{
			"buffer":0,
			"byteLength":1920,
			"byteOffset":6464,
			"target":34963
		},
		{
			"buffer":0,
			"byteLength":3696,
			"byteOffset":8384,
			"target":34962
		},
		{
			"buffer":0,
			"byteLength":3696,
			"byteOffset":12080,
			"target":34962
		},
		{
			"buffer":0,
			"byteLength":2464,
			"byteOffset":15776,
			"target":34962
		},
		{
			"buffer":0,
			"byteLength":1488,
			"byteOffset":18240,
			"target":34963
		}
	],
	"samplers":[
		{
			"magFilter":9729,
			"minFilter":9987
		}
	],
	"buffers":[
		{
			"byteLength":19728,
			"uri":"bread.bin"
		}
	]
}
